HIERARCHY
ROOT Hips
{
	OFFSET 0.000000 0.000000 0.000000
	CHANNELS 6 Xposition Yposition Zposition Xrotation Yrotation Zrotation
	JOINT LeftUpLeg_virtual
	{
		OFFSET 0.000000 0.000000 0.000000
		CHANNELS 3 Xrotation Yrotation Zrotation
		JOINT LeftUpLeg
		{
			OFFSET 10.205400 -3.823500 0.155100
			CHANNELS 3 Xrotation Yrotation Zrotation
			JOINT LeftLeg
			{
				OFFSET 0.708757 -12.982077 0.567790
				CHANNELS 3 Xrotation Yrotation Zrotation
				JOINT LeftFoot
				{
					OFFSET -0.708756 -10.717838 -2.184338
					CHANNELS 3 Xrotation Yrotation Zrotation
					JOINT LeftToeBase
					{
						OFFSET 0.108149 -7.191104 7.560241
						CHANNELS 3 Xrotation Yrotation Zrotation
						JOINT LeftToe_End
						{
							OFFSET 0.070230 0.081724 4.490308
							CHANNELS 3 Xrotation Yrotation Zrotation
							End Site
							{
								OFFSET 0 0 0
							}
						}
					}
				}
			}
		}
	}
	JOINT RightUpLeg_virtual
	{
		OFFSET 0.000000 0.000000 0.000000
		CHANNELS 3 Xrotation Yrotation Zrotation
		JOINT RightUpLeg
		{
			OFFSET -10.205400 -3.823500 0.005500
			CHANNELS 3 Xrotation Yrotation Zrotation
			JOINT RightLeg
			{
				OFFSET -0.708756 -12.982134 0.610632
				CHANNELS 3 Xrotation Yrotation Zrotation
				JOINT RightFoot
				{
					OFFSET 0.708754 -10.717769 -1.945823
					CHANNELS 3 Xrotation Yrotation Zrotation
					JOINT RightToeBase
					{
						OFFSET -0.108140 -7.191069 7.372968
						CHANNELS 3 Xrotation Yrotation Zrotation
						JOINT RightToe_End
						{
							OFFSET -0.070227 0.081735 4.479403
							CHANNELS 3 Xrotation Yrotation Zrotation
							End Site
							{
								OFFSET 0 0 0
							}
						}
					}
				}
			}
		}
	}
	JOINT Spine_virtual
	{
		OFFSET 0.000000 0.000000 0.000000
		CHANNELS 3 Xrotation Yrotation Zrotation
		JOINT Spine
		{
			OFFSET 0.000000 6.876099 0.125700
			CHANNELS 3 Xrotation Yrotation Zrotation
			JOINT Spine1
			{
				OFFSET 0.000000 5.730043 0.104720
				CHANNELS 3 Xrotation Yrotation Zrotation
				JOINT Spine1_split
				{
					OFFSET 0.000000 5.730043 0.104720
					CHANNELS 3 Xrotation Yrotation Zrotation
					JOINT Spine2
					{
						OFFSET 0.000000 5.730043 0.104720
						CHANNELS 3 Xrotation Yrotation Zrotation
						JOINT Neck_virtual
						{
							OFFSET 0.000000 0.000000 0.000000
							CHANNELS 3 Xrotation Yrotation Zrotation
							JOINT Neck
							{
								OFFSET 0.000000 10.314075 0.188496
								CHANNELS 3 Xrotation Yrotation Zrotation
								JOINT Head
								{
									OFFSET 0.000000 7.643700 -2.377400
									CHANNELS 3 Xrotation Yrotation Zrotation
									JOINT HeadTop_End
									{
										OFFSET 0.000000 43.788605 -13.619600
										CHANNELS 3 Xrotation Yrotation Zrotation
										End Site
										{
											OFFSET 0 0 0
										}
									}
								}
							}
						}
						JOINT LeftShoulder_virtual
						{
							OFFSET 0.000000 0.000000 0.000000
							CHANNELS 3 Xrotation Yrotation Zrotation
							JOINT LeftShoulder
							{
								OFFSET 2.196100 4.412489 0.087492
								CHANNELS 3 Xrotation Yrotation Zrotation
								JOINT LeftShoulder_split
								{
									OFFSET 2.196100 4.412489 0.087492
									CHANNELS 3 Xrotation Yrotation Zrotation
									JOINT LeftArm
									{
										OFFSET 8.771219 -2.981674 -0.026999
										CHANNELS 3 Xrotation Yrotation Zrotation
										JOINT LeftForeArm
										{
											OFFSET 8.512804 0.000000 -0.000000
											CHANNELS 3 Xrotation Yrotation Zrotation
											JOINT LeftHand
											{
												OFFSET 18.484802 0.000000 -0.000000
												CHANNELS 3 Xrotation Yrotation Zrotation
												End Site
												{
													OFFSET 0 0 0
												}
											}
										}
									}
								}
							}
						}
						JOINT RightShoulder_virtual
						{
							OFFSET 0.000000 0.000000 0.000000
							CHANNELS 3 Xrotation Yrotation Zrotation
							JOINT RightShoulder
							{
								OFFSET -2.196100 4.412496 0.070690
								CHANNELS 3 Xrotation Yrotation Zrotation
								JOINT RightShoulder_split
								{
									OFFSET -2.196100 4.412496 0.070690
									CHANNELS 3 Xrotation Yrotation Zrotation
									JOINT RightArm
									{
										OFFSET -8.771282 -2.981682 -0.094208
										CHANNELS 3 Xrotation Yrotation Zrotation
										JOINT RightForeArm
										{
											OFFSET -8.494598 0.000000 0.000000
											CHANNELS 3 Xrotation Yrotation Zrotation
											JOINT RightHand
											{
												OFFSET -18.483803 0.000000 0.000001
												CHANNELS 3 Xrotation Yrotation Zrotation
												End Site
												{
													OFFSET 0 0 0
												}
											}
										}
									}
								}
							}
						}
					}
				}
			}
		}
	}
}
MOTION
Frames: 4
Frame Time: 0.03333333
-0.046073 29.795843 0.308304 0.000000 0.000000 0.000000 -3.417560 -15.905467 -1.961969 -34.383999 18.083440 13.225932 51.930550 -1.216244 11.418845 -21.545777 3.992735 -10.455164 -0.126558 -0.031469 -1.073446 0.000000 0.000000 0.000000 -3.999372 -15.076801 -1.749367 -24.571626 -22.566656 -12.819576 49.342598 -2.148861 -13.090651 -21.963568 -5.418542 16.590045 -2.567644 0.359724 -1.186438 0.000000 0.000000 0.000000 -2.737643 -17.387317 -1.822820 4.158770 2.500355 2.075246 2.861107 2.027504 -0.081789 1.697957 -0.260566 0.036126 0.000000 0.000000 0.000000 2.842170 1.809493 -0.055333 0.985000 -0.183959 4.646711 0.213836 9.459289 1.522007 0.000000 0.000000 0.000000 2.645891 1.973440 -0.211451 0.006168 -4.091613 17.413463 -1.656869 -0.153442 -0.443436 -66.822521 -43.148293 -62.486580 -0.895543 -34.351692 0.780339 0.000000 0.000000 0.000000 3.054938 1.877336 -0.109209 -0.334525 -3.319963 -5.274570 0.695665 0.657878 0.582291 -104.200423 58.861471 95.722301 -1.547949 29.669276 0.414292 0.000000 0.000000 0.000000 
-0.056946 29.779158 0.302530 0.000000 0.000000 0.000000 -3.370641 -15.955045 -1.947752 -34.471394 18.089136 13.138353 51.845934 -1.191487 11.448193 -21.439498 3.958460 -10.496518 -0.169043 -0.006686 -1.106730 0.000000 0.000000 0.000000 -4.002933 -15.018852 -1.735349 -24.500087 -22.586462 -12.856159 49.665020 -2.220731 -13.023245 -22.228665 -5.418301 16.637434 -2.036859 0.332847 -1.282334 0.000000 0.000000 0.000000 -2.765107 -17.253773 -1.912164 4.154020 2.466475 2.027971 2.872409 2.019005 -0.112062 1.574967 0.062112 -0.100265 0.000000 0.000000 0.000000 2.765888 1.789246 -0.082307 0.851581 -0.310510 4.678386 0.410212 9.497294 1.511997 0.000000 0.000000 0.000000 2.659285 1.954990 -0.220730 -0.049086 -3.941791 17.335449 -1.658046 -0.139938 -0.335287 -66.778302 -43.366179 -62.606211 -0.842833 -34.657872 0.846562 0.000000 0.000000 0.000000 3.119595 1.879107 -0.128319 -0.312609 -3.225707 -5.367622 0.695339 0.611453 0.557116 -104.211447 59.369657 95.899114 -1.416137 29.399316 0.378471 0.000000 0.000000 0.000000 
-0.063552 29.765028 0.298634 0.000000 0.000000 0.000000 -3.311709 -16.055219 -1.897514 -34.601762 18.122083 13.011455 51.783397 -1.173212 11.567346 -21.145067 3.851410 -10.694699 -0.135100 0.031536 -1.202000 0.000000 0.000000 0.000000 -3.989828 -15.123070 -1.692166 -24.457977 -22.595473 -12.880514 49.801546 -2.352345 -12.935984 -22.227005 -5.465036 16.730359 -1.892362 0.232866 -1.388970 0.000000 0.000000 0.000000 -2.833159 -17.088387 -1.993626 4.072699 2.394085 1.930404 2.820683 2.050409 -0.152620 1.323514 0.072037 -0.213366 0.000000 0.000000 0.000000 2.721030 1.815290 -0.130610 0.753459 -0.525270 4.877452 0.834459 9.332083 1.684754 0.000000 0.000000 0.000000 2.660094 1.979776 -0.252621 -0.134717 -3.637985 17.162167 -1.571240 -0.122473 -0.328192 -66.612021 -43.830874 -62.662423 -0.877375 -35.134264 0.798930 0.000000 0.000000 0.000000 3.150329 1.914798 -0.160286 -0.240385 -2.999877 -5.511248 0.508153 0.546332 0.355777 -104.018645 60.025492 96.220112 -1.245695 29.191795 0.302428 0.000000 0.000000 0.000000 
-0.065997 29.763689 0.300936 0.000000 0.000000 0.000000 -3.241496 -16.247063 -1.826592 -34.744756 18.203851 12.936911 51.689109 -1.139357 11.734266 -20.790365 3.710821 -10.939784 -0.032727 0.081425 -1.328837 0.000000 0.000000 0.000000 -3.899616 -15.405353 -1.623646 -24.413053 -22.566108 -12.840698 49.688137 -2.494370 -12.865920 -21.960872 -5.518477 16.788260 -2.152173 0.076074 -1.409677 0.000000 0.000000 0.000000 -2.910005 -17.023511 -2.037401 3.921951 2.286768 1.819539 2.714333 2.095721 -0.198101 1.015355 -0.204808 -0.158746 0.000000 0.000000 0.000000 2.698365 1.869592 -0.186487 0.693457 -0.776074 5.191072 1.342506 9.076501 1.981380 0.000000 0.000000 0.000000 2.632954 2.029409 -0.303688 -0.237097 -3.229816 16.879648 -1.372426 -0.142449 -0.409301 -66.377404 -44.555674 -62.764295 -0.953743 -35.557453 0.642960 0.000000 0.000000 0.000000 3.139613 1.964008 -0.198487 -0.126963 -2.690302 -5.708728 0.312056 0.450032 0.151689 -103.641407 60.662537 96.605622 -1.066879 29.144772 0.203111 0.000000 0.000000 0.000000 
